<svg id="Layer_1" data-name="Layer 1" xmlns="http://www.w3.org/2000/svg" viewBox="0 0 465.36 268.78"><defs><style>.cls-1,.cls-11{fill:none;stroke:#000;stroke-linecap:round;stroke-linejoin:round;}.cls-1{stroke-width:0.48px;}.cls-13,.cls-14,.cls-15,.cls-2,.cls-3,.cls-4,.cls-5,.cls-9{isolation:isolate;}.cls-2,.cls-4,.cls-5,.cls-9{font-size:8.97px;}.cls-2,.cls-4,.cls-6,.cls-9{font-family:ArialMT, Arial;}.cls-4{letter-spacing:4.49em;}.cls-5{font-family:TimesNewRomanPSMT, Times New Roman;}.cls-6{letter-spacing:0em;}.cls-7{fill:#ccc;}.cls-8{fill:#999;}.cls-9{letter-spacing:0.23em;}.cls-10{letter-spacing:-0.07em;}.cls-11{stroke-width:0.96px;}.cls-12{fill:#fff;}.cls-13,.cls-14,.cls-15{font-size:9px;font-family:MyriadPro-Regular, Myriad Pro;}.cls-14{letter-spacing:-0.01em;}.cls-15{letter-spacing:0.01em;}</style></defs><title>bijekce</title><line class="cls-1" x1="0.24" y1="227.48" x2="210" y2="227.48"/><polyline class="cls-1" points="206.31 229.01 210 227.48 206.31 225.95"/><line class="cls-1" x1="68.27" y1="227.48" x2="68.27" y2="12.05"/><polyline class="cls-1" points="69.8 15.74 68.27 12.05 66.74 15.74"/><text class="cls-2" transform="translate(217.1 236.3)">R(</text><text class="cls-2" transform="translate(226.57 236.3)">s</text><text class="cls-2" transform="translate(230.86 236.3)">)</text><line class="cls-1" x1="11.58" y1="227.48" x2="11.58" y2="224.65"/><text class="cls-2" transform="translate(13.68 235.36)">−</text><g class="cls-3"><text class="cls-2" transform="translate(20.85 235.36)">1</text><text class="cls-4" transform="translate(25.45 235.36)">0</text><text class="cls-2" transform="translate(70.35 235.36)">0</text></g><line class="cls-1" x1="124.96" y1="227.48" x2="124.96" y2="224.65"/><text class="cls-2" transform="translate(113.65 235.36)">10</text><line class="cls-1" x1="130.63" y1="227.48" x2="130.63" y2="224.65"/><line class="cls-1" x1="136.3" y1="227.48" x2="136.3" y2="224.65"/><text class="cls-2" transform="translate(138.4 235.36)">12</text><line class="cls-1" x1="181.66" y1="227.48" x2="181.66" y2="224.65"/><text class="cls-2" transform="translate(170.34 235.36)">20</text><line class="cls-1" x1="187.33" y1="227.48" x2="187.33" y2="224.65"/><text class="cls-2" transform="translate(189.43 235.36)">21</text><text class="cls-5" transform="translate(51.71 7.7)">I<tspan class="cls-6" x="2.99" y="0">(</tspan></text><text class="cls-2" transform="translate(58.3 7.7)">s</text><text class="cls-2" transform="translate(62.59 7.7)">)</text><line class="cls-1" x1="68.27" y1="199.13" x2="71.11" y2="199.13"/><text class="cls-2" transform="translate(58.1 202.16)">5i</text><line class="cls-1" x1="68.27" y1="170.79" x2="71.11" y2="170.79"/><text class="cls-2" transform="translate(53.5 173.82)">10i</text><line class="cls-1" x1="68.27" y1="142.44" x2="71.11" y2="142.44"/><text class="cls-2" transform="translate(53.5 145.47)">15i</text><line class="cls-1" x1="68.27" y1="114.09" x2="71.11" y2="114.09"/><text class="cls-2" transform="translate(53.5 117.12)">20i</text><line class="cls-1" x1="68.27" y1="85.75" x2="71.11" y2="85.75"/><text class="cls-2" transform="translate(53.5 88.78)">25i</text><line class="cls-1" x1="68.27" y1="57.4" x2="71.11" y2="57.4"/><text class="cls-2" transform="translate(53.5 60.43)">30i</text><line class="cls-1" x1="68.27" y1="29.05" x2="71.11" y2="29.05"/><text class="cls-2" transform="translate(53.5 32.09)">35i</text><line class="cls-1" x1="5.91" y1="238.82" x2="62.6" y2="238.82"/><polyline class="cls-1" points="58.91 240.35 62.6 238.82 58.91 237.29"/><polyline class="cls-1" points="9.61 237.29 5.91 238.82 9.61 240.35"/><line class="cls-1" x1="65.44" y1="238.82" x2="119.3" y2="238.82"/><polyline class="cls-1" points="115.6 240.35 119.3 238.82 115.6 237.29"/><polyline class="cls-1" points="69.13 237.29 65.44 238.82 69.13 240.35"/><line class="cls-1" x1="122.13" y1="238.82" x2="175.99" y2="238.82"/><polyline class="cls-1" points="172.29 240.35 175.99 238.82 172.29 237.29"/><polyline class="cls-1" points="125.83 237.29 122.13 238.82 125.83 240.35"/><line class="cls-1" x1="178.82" y1="238.82" x2="210" y2="238.82"/><polyline class="cls-1" points="206.31 240.35 210 238.82 206.31 237.29"/><polyline class="cls-1" points="182.52 237.29 178.82 238.82 182.52 240.35"/><path class="cls-1" d="M238.35,227.28H465.12V187.59c0-151.18-226.77-151.18-226.77,0Z" transform="translate(0 0.2)"/><rect class="cls-7" x="275.2" y="136.77" width="17.01" height="28.35"/><rect class="cls-8" x="264.99" y="153.78" width="8.5" height="8.5"/><rect class="cls-8" x="293.91" y="139.61" width="8.5" height="8.5"/><rect class="cls-8" x="264.99" y="139.61" width="8.5" height="8.5"/><rect class="cls-8" x="293.91" y="153.78" width="8.5" height="8.5"/><g class="cls-3"><text class="cls-2" transform="translate(269.88 153.56)">2</text><text class="cls-9" transform="translate(274.48 153.56)">1+</text><text class="cls-2" transform="translate(288.51 153.56)">1i</text></g><rect class="cls-7" x="275.2" y="167.95" width="17.01" height="28.35"/><rect class="cls-8" x="264.99" y="184.96" width="8.5" height="8.5"/><rect class="cls-8" x="293.91" y="170.79" width="8.5" height="8.5"/><rect class="cls-8" x="264.99" y="170.79" width="8.5" height="8.5"/><rect class="cls-8" x="293.91" y="184.96" width="8.5" height="8.5"/><g class="cls-3"><text class="cls-2" transform="translate(269.88 184.74)">2</text><text class="cls-9" transform="translate(274.48 184.74)">1+</text><text class="cls-2" transform="translate(288.51 184.74)">5i</text></g><rect class="cls-7" x="275.2" y="199.13" width="17.01" height="28.35"/><rect class="cls-8" x="264.99" y="216.14" width="8.5" height="8.5"/><rect class="cls-8" x="293.91" y="201.97" width="8.5" height="8.5"/><rect class="cls-8" x="264.99" y="201.97" width="8.5" height="8.5"/><rect class="cls-8" x="293.91" y="216.14" width="8.5" height="8.5"/><g class="cls-3"><text class="cls-2" transform="translate(269.88 215.92)">2</text><text class="cls-9" transform="translate(274.48 215.92)">1+</text><text class="cls-2" transform="translate(288.51 215.92)">9i</text></g><rect class="cls-7" x="320.55" y="136.77" width="17.01" height="28.35"/><rect class="cls-8" x="310.35" y="153.78" width="8.5" height="8.5"/><rect class="cls-8" x="339.26" y="139.61" width="8.5" height="8.5"/><rect class="cls-8" x="310.35" y="139.61" width="8.5" height="8.5"/><rect class="cls-8" x="339.26" y="153.78" width="8.5" height="8.5"/><g class="cls-3"><text class="cls-2" transform="translate(315.24 153.56)">2</text><text class="cls-9" transform="translate(319.84 153.56)">1+</text><text class="cls-2" transform="translate(333.87 153.56)">2i</text></g><rect class="cls-7" x="320.55" y="167.95" width="17.01" height="28.35"/><rect class="cls-8" x="310.35" y="184.96" width="8.5" height="8.5"/><rect class="cls-8" x="339.26" y="170.79" width="8.5" height="8.5"/><rect class="cls-8" x="310.35" y="170.79" width="8.5" height="8.5"/><rect class="cls-8" x="339.26" y="184.96" width="8.5" height="8.5"/><g class="cls-3"><text class="cls-2" transform="translate(315.24 184.74)">2</text><text class="cls-9" transform="translate(319.84 184.74)">1+</text><text class="cls-2" transform="translate(333.87 184.74)">6i</text></g><rect class="cls-7" x="320.55" y="199.13" width="17.01" height="28.35"/><rect class="cls-8" x="310.35" y="216.14" width="8.5" height="8.5"/><rect class="cls-8" x="339.26" y="201.97" width="8.5" height="8.5"/><rect class="cls-8" x="310.35" y="201.97" width="8.5" height="8.5"/><rect class="cls-8" x="339.26" y="216.14" width="8.5" height="8.5"/><g class="cls-3"><text class="cls-2" transform="translate(312.93 215.92)">2</text><text class="cls-9" transform="translate(317.53 215.92)">1+</text><text class="cls-2" transform="translate(331.56 215.92)">10i</text></g><rect class="cls-7" x="365.91" y="136.77" width="17.01" height="28.35"/><rect class="cls-8" x="355.71" y="153.78" width="8.5" height="8.5"/><rect class="cls-8" x="384.62" y="139.61" width="8.5" height="8.5"/><rect class="cls-8" x="355.71" y="139.61" width="8.5" height="8.5"/><rect class="cls-8" x="384.62" y="153.78" width="8.5" height="8.5"/><g class="cls-3"><text class="cls-2" transform="translate(360.59 153.56)">2</text><text class="cls-9" transform="translate(365.19 153.56)">1+</text><text class="cls-2" transform="translate(379.22 153.56)">3i</text></g><rect class="cls-7" x="365.91" y="167.95" width="17.01" height="28.35"/><rect class="cls-8" x="355.71" y="184.96" width="8.5" height="8.5"/><rect class="cls-8" x="384.62" y="170.79" width="8.5" height="8.5"/><rect class="cls-8" x="355.71" y="170.79" width="8.5" height="8.5"/><rect class="cls-8" x="384.62" y="184.96" width="8.5" height="8.5"/><g class="cls-3"><text class="cls-2" transform="translate(360.59 184.74)">2</text><text class="cls-9" transform="translate(365.19 184.74)">1+</text><text class="cls-2" transform="translate(379.22 184.74)">7i</text></g><rect class="cls-7" x="365.91" y="199.13" width="17.01" height="28.35"/><rect class="cls-8" x="355.71" y="216.14" width="8.5" height="8.5"/><rect class="cls-8" x="384.62" y="201.97" width="8.5" height="8.5"/><rect class="cls-8" x="355.71" y="201.97" width="8.5" height="8.5"/><rect class="cls-8" x="384.62" y="216.14" width="8.5" height="8.5"/><g class="cls-3"><text class="cls-2" transform="translate(358.29 215.92)">2</text><text class="cls-9" transform="translate(362.89 215.92)">1</text><text class="cls-9" transform="translate(369.53 215.92)">+</text><text class="cls-2" transform="translate(376.91 215.92)"><tspan class="cls-10">1</tspan><tspan x="4.32" y="0">1i</tspan></text></g><rect class="cls-7" x="411.26" y="136.77" width="17.01" height="28.35"/><rect class="cls-8" x="401.06" y="153.78" width="8.5" height="8.5"/><rect class="cls-8" x="429.97" y="139.61" width="8.5" height="8.5"/><rect class="cls-8" x="401.06" y="139.61" width="8.5" height="8.5"/><rect class="cls-8" x="429.97" y="153.78" width="8.5" height="8.5"/><g class="cls-3"><text class="cls-2" transform="translate(405.94 153.56)">2</text><text class="cls-9" transform="translate(410.54 153.56)">1+</text><text class="cls-2" transform="translate(424.57 153.56)">4i</text></g><rect class="cls-7" x="411.26" y="167.95" width="17.01" height="28.35"/><rect class="cls-8" x="401.06" y="184.96" width="8.5" height="8.5"/><rect class="cls-8" x="429.97" y="170.79" width="8.5" height="8.5"/><rect class="cls-8" x="401.06" y="170.79" width="8.5" height="8.5"/><rect class="cls-8" x="429.97" y="184.96" width="8.5" height="8.5"/><g class="cls-3"><text class="cls-2" transform="translate(405.94 184.74)">2</text><text class="cls-9" transform="translate(410.54 184.74)">1+</text><text class="cls-2" transform="translate(424.57 184.74)">8i</text></g><rect class="cls-7" x="411.26" y="199.13" width="17.01" height="28.35"/><rect class="cls-8" x="401.06" y="216.14" width="8.5" height="8.5"/><rect class="cls-8" x="429.97" y="201.97" width="8.5" height="8.5"/><rect class="cls-8" x="401.06" y="201.97" width="8.5" height="8.5"/><rect class="cls-8" x="429.97" y="216.14" width="8.5" height="8.5"/><g class="cls-3"><text class="cls-2" transform="translate(403.64 215.92)">2</text><text class="cls-9" transform="translate(408.24 215.92)">1+</text><text class="cls-2" transform="translate(422.27 215.92)">12i</text></g><text class="cls-2" transform="translate(218.55 150.04)">σ</text><path class="cls-11" d="M187.32,221.61c19.41-33.65,41.46-70.87,79.41-70.87" transform="translate(0 0.2)"/><path class="cls-11" d="M263.06,152.4q1.76-.88,3.64-1.66-1.88-.78-3.75-1.4" transform="translate(0 0.2)"/><path class="cls-11" d="M187.32,215.94c38.1-66,95.07-124.19,141.73-85" transform="translate(0 0.2)"/><path class="cls-11" d="M325.21,129.81q1.9.48,3.85,1.09-.94-1.81-2-3.49" transform="translate(0 0.2)"/><path class="cls-11" d="M187.32,210.27c54.83-95,150.12-143.4,187.09-79.37" transform="translate(0 0.2)"/><path class="cls-11" d="M371.17,128.55q1.63,1.11,3.24,2.35-.27-2-.63-4" transform="translate(0 0.2)"/><path class="cls-11" d="M187.32,204.6C258.45,81.41,389.51,47.79,419.73,130.9" transform="translate(0 0.2)"/><path class="cls-11" d="M417,128q1.4,1.39,2.77,2.88.09-2,.08-4" transform="translate(0 0.2)"/><path class="cls-12" d="M12.73,221.61a1.13,1.13,0,1,0-.33.8,1.13,1.13,0,0,0,.33-.8" transform="translate(0 0.2)"/><path class="cls-11" d="M12.73,221.61a1.13,1.13,0,1,0-.33.8A1.13,1.13,0,0,0,12.73,221.61Z" transform="translate(0 0.2)"/><path class="cls-12" d="M12.73,215.94a1.14,1.14,0,1,0-.33.8,1.14,1.14,0,0,0,.33-.8" transform="translate(0 0.2)"/><path class="cls-11" d="M12.73,215.94a1.14,1.14,0,1,0-.33.8A1.14,1.14,0,0,0,12.73,215.94Z" transform="translate(0 0.2)"/><path class="cls-12" d="M12.73,210.27a1.13,1.13,0,1,0-.33.8,1.13,1.13,0,0,0,.33-.8" transform="translate(0 0.2)"/><path class="cls-11" d="M12.73,210.27a1.13,1.13,0,1,0-.33.8A1.13,1.13,0,0,0,12.73,210.27Z" transform="translate(0 0.2)"/><path class="cls-12" d="M12.73,204.6a1.13,1.13,0,1,0-.33.8,1.13,1.13,0,0,0,.33-.8" transform="translate(0 0.2)"/><path class="cls-11" d="M12.73,204.6a1.13,1.13,0,1,0-.33.8A1.13,1.13,0,0,0,12.73,204.6Z" transform="translate(0 0.2)"/><path class="cls-12" d="M12.73,198.93a1.13,1.13,0,1,0-.33.8,1.13,1.13,0,0,0,.33-.8" transform="translate(0 0.2)"/><path class="cls-11" d="M12.73,198.93a1.13,1.13,0,1,0-.33.8A1.13,1.13,0,0,0,12.73,198.93Z" transform="translate(0 0.2)"/><path class="cls-12" d="M12.73,193.26a1.14,1.14,0,1,0-.33.8,1.14,1.14,0,0,0,.33-.8" transform="translate(0 0.2)"/><path class="cls-11" d="M12.73,193.26a1.14,1.14,0,1,0-.33.8A1.14,1.14,0,0,0,12.73,193.26Z" transform="translate(0 0.2)"/><path class="cls-12" d="M12.73,187.59a1.14,1.14,0,1,0-.33.8,1.14,1.14,0,0,0,.33-.8" transform="translate(0 0.2)"/><path class="cls-11" d="M12.73,187.59a1.14,1.14,0,1,0-.33.8A1.14,1.14,0,0,0,12.73,187.59Z" transform="translate(0 0.2)"/><path class="cls-12" d="M12.73,181.93a1.13,1.13,0,1,0-.33.8,1.13,1.13,0,0,0,.33-.8" transform="translate(0 0.2)"/><path class="cls-11" d="M12.73,181.93a1.13,1.13,0,1,0-.33.8A1.13,1.13,0,0,0,12.73,181.93Z" transform="translate(0 0.2)"/><path class="cls-12" d="M12.73,176.26a1.13,1.13,0,1,0-.33.8,1.13,1.13,0,0,0,.33-.8" transform="translate(0 0.2)"/><path class="cls-11" d="M12.73,176.26a1.13,1.13,0,1,0-.33.8A1.13,1.13,0,0,0,12.73,176.26Z" transform="translate(0 0.2)"/><path class="cls-12" d="M12.73,170.59a1.13,1.13,0,1,0-.33.8,1.13,1.13,0,0,0,.33-.8" transform="translate(0 0.2)"/><path class="cls-11" d="M12.73,170.59a1.13,1.13,0,1,0-.33.8A1.13,1.13,0,0,0,12.73,170.59Z" transform="translate(0 0.2)"/><path class="cls-12" d="M12.73,164.92a1.14,1.14,0,1,0-.33.8,1.14,1.14,0,0,0,.33-.8" transform="translate(0 0.2)"/><path class="cls-11" d="M12.73,164.92a1.14,1.14,0,1,0-.33.8A1.14,1.14,0,0,0,12.73,164.92Z" transform="translate(0 0.2)"/><path class="cls-12" d="M12.73,159.25a1.14,1.14,0,1,0-.33.8,1.14,1.14,0,0,0,.33-.8" transform="translate(0 0.2)"/><path class="cls-11" d="M12.73,159.25a1.14,1.14,0,1,0-.33.8A1.14,1.14,0,0,0,12.73,159.25Z" transform="translate(0 0.2)"/><path class="cls-12" d="M12.73,153.58a1.13,1.13,0,1,0-.33.8,1.13,1.13,0,0,0,.33-.8" transform="translate(0 0.2)"/><path class="cls-11" d="M12.73,153.58a1.13,1.13,0,1,0-.33.8A1.13,1.13,0,0,0,12.73,153.58Z" transform="translate(0 0.2)"/><path class="cls-12" d="M12.73,147.91a1.13,1.13,0,1,0-.33.8,1.13,1.13,0,0,0,.33-.8" transform="translate(0 0.2)"/><path class="cls-11" d="M12.73,147.91a1.13,1.13,0,1,0-.33.8A1.13,1.13,0,0,0,12.73,147.91Z" transform="translate(0 0.2)"/><path class="cls-12" d="M12.73,142.24a1.13,1.13,0,1,0-1.13,1.13,1.13,1.13,0,0,0,1.13-1.13h0" transform="translate(0 0.2)"/><path class="cls-11" d="M12.73,142.24a1.13,1.13,0,1,0-1.13,1.13,1.13,1.13,0,0,0,1.13-1.13Z" transform="translate(0 0.2)"/><path class="cls-12" d="M12.73,136.57a1.14,1.14,0,1,0-.33.8,1.14,1.14,0,0,0,.33-.8" transform="translate(0 0.2)"/><path class="cls-11" d="M12.73,136.57a1.14,1.14,0,1,0-.33.8A1.14,1.14,0,0,0,12.73,136.57Z" transform="translate(0 0.2)"/><path class="cls-12" d="M12.73,130.9a1.14,1.14,0,1,0-.33.8,1.14,1.14,0,0,0,.33-.8" transform="translate(0 0.2)"/><path class="cls-11" d="M12.73,130.9a1.14,1.14,0,1,0-.33.8A1.14,1.14,0,0,0,12.73,130.9Z" transform="translate(0 0.2)"/><path class="cls-12" d="M12.73,125.23a1.14,1.14,0,1,0-.33.8,1.14,1.14,0,0,0,.33-.8" transform="translate(0 0.2)"/><path class="cls-11" d="M12.73,125.23a1.14,1.14,0,1,0-.33.8A1.14,1.14,0,0,0,12.73,125.23Z" transform="translate(0 0.2)"/><path class="cls-12" d="M12.73,119.56a1.13,1.13,0,1,0-1.13,1.13,1.13,1.13,0,0,0,1.13-1.13h0" transform="translate(0 0.2)"/><path class="cls-11" d="M12.73,119.56a1.13,1.13,0,1,0-1.13,1.13,1.13,1.13,0,0,0,1.13-1.13Z" transform="translate(0 0.2)"/><path class="cls-12" d="M12.73,113.9A1.13,1.13,0,1,0,11.6,115h0a1.13,1.13,0,0,0,1.13-1.13" transform="translate(0 0.2)"/><path class="cls-11" d="M12.73,113.9A1.13,1.13,0,1,0,11.6,115h0A1.13,1.13,0,0,0,12.73,113.9Z" transform="translate(0 0.2)"/><path class="cls-12" d="M12.73,108.23a1.13,1.13,0,1,0-1.13,1.13h0a1.13,1.13,0,0,0,1.13-1.13" transform="translate(0 0.2)"/><path class="cls-11" d="M12.73,108.23a1.13,1.13,0,1,0-1.13,1.13h0A1.13,1.13,0,0,0,12.73,108.23Z" transform="translate(0 0.2)"/><path class="cls-12" d="M12.73,102.56a1.14,1.14,0,1,0-.33.8,1.14,1.14,0,0,0,.33-.8" transform="translate(0 0.2)"/><path class="cls-11" d="M12.73,102.56a1.14,1.14,0,1,0-.33.8A1.14,1.14,0,0,0,12.73,102.56Z" transform="translate(0 0.2)"/><path class="cls-12" d="M12.73,96.89a1.14,1.14,0,1,0-.33.8,1.14,1.14,0,0,0,.33-.8" transform="translate(0 0.2)"/><path class="cls-11" d="M12.73,96.89a1.14,1.14,0,1,0-.33.8A1.14,1.14,0,0,0,12.73,96.89Z" transform="translate(0 0.2)"/><path class="cls-12" d="M12.73,91.22a1.13,1.13,0,1,0-.33.8,1.13,1.13,0,0,0,.33-.8" transform="translate(0 0.2)"/><path class="cls-11" d="M12.73,91.22a1.13,1.13,0,1,0-.33.8A1.13,1.13,0,0,0,12.73,91.22Z" transform="translate(0 0.2)"/><path class="cls-12" d="M12.73,85.5a1.13,1.13,0,1,0-1.13,1.13h0a1.13,1.13,0,0,0,1.13-1.13" transform="translate(0 0.2)"/><path class="cls-11" d="M12.73,85.5a1.13,1.13,0,1,0-1.13,1.13h0A1.13,1.13,0,0,0,12.73,85.5Z" transform="translate(0 0.2)"/><path class="cls-12" d="M12.73,79.88a1.13,1.13,0,1,0-.33.8,1.13,1.13,0,0,0,.33-.8" transform="translate(0 0.2)"/><path class="cls-11" d="M12.73,79.88a1.13,1.13,0,1,0-.33.8A1.13,1.13,0,0,0,12.73,79.88Z" transform="translate(0 0.2)"/><path class="cls-12" d="M12.73,74.21a1.14,1.14,0,1,0-.33.8,1.14,1.14,0,0,0,.33-.8" transform="translate(0 0.2)"/><path class="cls-11" d="M12.73,74.21a1.14,1.14,0,1,0-.33.8A1.14,1.14,0,0,0,12.73,74.21Z" transform="translate(0 0.2)"/><path class="cls-12" d="M12.73,68.5a1.14,1.14,0,1,0-.33.8,1.14,1.14,0,0,0,.33-.8" transform="translate(0 0.2)"/><path class="cls-11" d="M12.73,68.5a1.14,1.14,0,1,0-.33.8A1.14,1.14,0,0,0,12.73,68.5Z" transform="translate(0 0.2)"/><path class="cls-12" d="M12.73,62.87a1.13,1.13,0,1,0-.33.8,1.13,1.13,0,0,0,.33-.8" transform="translate(0 0.2)"/><path class="cls-11" d="M12.73,62.87a1.13,1.13,0,1,0-.33.8A1.13,1.13,0,0,0,12.73,62.87Z" transform="translate(0 0.2)"/><path class="cls-12" d="M12.73,57.2a1.13,1.13,0,1,0-.33.8,1.13,1.13,0,0,0,.33-.8" transform="translate(0 0.2)"/><path class="cls-11" d="M12.73,57.2a1.13,1.13,0,1,0-.33.8A1.13,1.13,0,0,0,12.73,57.2Z" transform="translate(0 0.2)"/><path class="cls-12" d="M12.73,51.5a1.13,1.13,0,1,0-.33.8,1.13,1.13,0,0,0,.33-.8" transform="translate(0 0.2)"/><path class="cls-11" d="M12.73,51.5a1.13,1.13,0,1,0-.33.8A1.13,1.13,0,0,0,12.73,51.5Z" transform="translate(0 0.2)"/><path class="cls-12" d="M12.73,45.86a1.14,1.14,0,1,0-.33.8,1.14,1.14,0,0,0,.33-.8" transform="translate(0 0.2)"/><path class="cls-11" d="M12.73,45.86a1.14,1.14,0,1,0-.33.8A1.14,1.14,0,0,0,12.73,45.86Z" transform="translate(0 0.2)"/><path class="cls-12" d="M12.73,40.19a1.13,1.13,0,1,0-.33.8,1.13,1.13,0,0,0,.33-.8" transform="translate(0 0.2)"/><path class="cls-11" d="M12.73,40.19a1.13,1.13,0,1,0-.33.8A1.13,1.13,0,0,0,12.73,40.19Z" transform="translate(0 0.2)"/><path class="cls-12" d="M12.73,34.5a1.13,1.13,0,1,0-.33.8,1.13,1.13,0,0,0,.33-.8" transform="translate(0 0.2)"/><path class="cls-11" d="M12.73,34.5a1.13,1.13,0,1,0-.33.8A1.13,1.13,0,0,0,12.73,34.5Z" transform="translate(0 0.2)"/><path class="cls-12" d="M12.73,28.85a1.13,1.13,0,1,0-.33.8,1.13,1.13,0,0,0,.33-.8" transform="translate(0 0.2)"/><path class="cls-11" d="M12.73,28.85a1.13,1.13,0,1,0-.33.8A1.13,1.13,0,0,0,12.73,28.85Z" transform="translate(0 0.2)"/><path class="cls-12" d="M69.4,221.61a1.13,1.13,0,1,0-.33.8,1.13,1.13,0,0,0,.33-.8" transform="translate(0 0.2)"/><path class="cls-11" d="M69.4,221.61a1.13,1.13,0,1,0-.33.8A1.13,1.13,0,0,0,69.4,221.61Z" transform="translate(0 0.2)"/><path class="cls-12" d="M69.4,215.94a1.14,1.14,0,1,0-.33.8,1.14,1.14,0,0,0,.33-.8" transform="translate(0 0.2)"/><path class="cls-11" d="M69.4,215.94a1.14,1.14,0,1,0-.33.8A1.14,1.14,0,0,0,69.4,215.94Z" transform="translate(0 0.2)"/><path class="cls-12" d="M69.4,210.27a1.13,1.13,0,1,0-.33.8,1.13,1.13,0,0,0,.33-.8" transform="translate(0 0.2)"/><path class="cls-11" d="M69.4,210.27a1.13,1.13,0,1,0-.33.8A1.13,1.13,0,0,0,69.4,210.27Z" transform="translate(0 0.2)"/><path class="cls-12" d="M69.4,204.6a1.13,1.13,0,1,0-.33.8,1.13,1.13,0,0,0,.33-.8" transform="translate(0 0.2)"/><path class="cls-11" d="M69.4,204.6a1.13,1.13,0,1,0-.33.8A1.13,1.13,0,0,0,69.4,204.6Z" transform="translate(0 0.2)"/><path class="cls-12" d="M69.4,198.93a1.13,1.13,0,1,0-.33.8,1.13,1.13,0,0,0,.33-.8" transform="translate(0 0.2)"/><path class="cls-11" d="M69.4,198.93a1.13,1.13,0,1,0-.33.8A1.13,1.13,0,0,0,69.4,198.93Z" transform="translate(0 0.2)"/><path class="cls-12" d="M69.4,193.26a1.14,1.14,0,1,0-.33.8,1.14,1.14,0,0,0,.33-.8" transform="translate(0 0.2)"/><path class="cls-11" d="M69.4,193.26a1.14,1.14,0,1,0-.33.8A1.14,1.14,0,0,0,69.4,193.26Z" transform="translate(0 0.2)"/><path class="cls-12" d="M69.4,187.59a1.14,1.14,0,1,0-.33.8,1.14,1.14,0,0,0,.33-.8" transform="translate(0 0.2)"/><path class="cls-11" d="M69.4,187.59a1.14,1.14,0,1,0-.33.8A1.14,1.14,0,0,0,69.4,187.59Z" transform="translate(0 0.2)"/><path class="cls-12" d="M69.4,181.93a1.13,1.13,0,1,0-.33.8,1.13,1.13,0,0,0,.33-.8" transform="translate(0 0.2)"/><path class="cls-11" d="M69.4,181.93a1.13,1.13,0,1,0-.33.8A1.13,1.13,0,0,0,69.4,181.93Z" transform="translate(0 0.2)"/><path class="cls-12" d="M69.4,176.26a1.13,1.13,0,1,0-.33.8,1.13,1.13,0,0,0,.33-.8" transform="translate(0 0.2)"/><path class="cls-11" d="M69.4,176.26a1.13,1.13,0,1,0-.33.8A1.13,1.13,0,0,0,69.4,176.26Z" transform="translate(0 0.2)"/><path class="cls-12" d="M69.4,170.59a1.13,1.13,0,1,0-.33.8,1.13,1.13,0,0,0,.33-.8" transform="translate(0 0.2)"/><path class="cls-11" d="M69.4,170.59a1.13,1.13,0,1,0-.33.8A1.13,1.13,0,0,0,69.4,170.59Z" transform="translate(0 0.2)"/><path class="cls-12" d="M69.4,164.92a1.14,1.14,0,1,0-.33.8,1.14,1.14,0,0,0,.33-.8" transform="translate(0 0.2)"/><path class="cls-11" d="M69.4,164.92a1.14,1.14,0,1,0-.33.8A1.14,1.14,0,0,0,69.4,164.92Z" transform="translate(0 0.2)"/><path class="cls-12" d="M69.4,159.25a1.14,1.14,0,1,0-.33.8,1.14,1.14,0,0,0,.33-.8" transform="translate(0 0.2)"/><path class="cls-11" d="M69.4,159.25a1.14,1.14,0,1,0-.33.8A1.14,1.14,0,0,0,69.4,159.25Z" transform="translate(0 0.2)"/><path class="cls-12" d="M75.07,221.61a1.13,1.13,0,1,0-.33.8,1.13,1.13,0,0,0,.33-.8" transform="translate(0 0.2)"/><path class="cls-11" d="M75.07,221.61a1.13,1.13,0,1,0-.33.8A1.13,1.13,0,0,0,75.07,221.61Z" transform="translate(0 0.2)"/><path class="cls-12" d="M75.07,215.94a1.14,1.14,0,1,0-.33.8,1.14,1.14,0,0,0,.33-.8" transform="translate(0 0.2)"/><path class="cls-11" d="M75.07,215.94a1.14,1.14,0,1,0-.33.8A1.14,1.14,0,0,0,75.07,215.94Z" transform="translate(0 0.2)"/><path class="cls-12" d="M75.07,210.27a1.13,1.13,0,1,0-.33.8,1.13,1.13,0,0,0,.33-.8" transform="translate(0 0.2)"/><path class="cls-11" d="M75.07,210.27a1.13,1.13,0,1,0-.33.8A1.13,1.13,0,0,0,75.07,210.27Z" transform="translate(0 0.2)"/><path class="cls-12" d="M75.07,204.6a1.13,1.13,0,1,0-.33.8,1.13,1.13,0,0,0,.33-.8" transform="translate(0 0.2)"/><path class="cls-11" d="M75.07,204.6a1.13,1.13,0,1,0-.33.8A1.13,1.13,0,0,0,75.07,204.6Z" transform="translate(0 0.2)"/><path class="cls-12" d="M75.07,198.93a1.13,1.13,0,1,0-.33.8,1.13,1.13,0,0,0,.33-.8" transform="translate(0 0.2)"/><path class="cls-11" d="M75.07,198.93a1.13,1.13,0,1,0-.33.8A1.13,1.13,0,0,0,75.07,198.93Z" transform="translate(0 0.2)"/><path class="cls-12" d="M75.07,193.26a1.14,1.14,0,1,0-.33.8,1.14,1.14,0,0,0,.33-.8" transform="translate(0 0.2)"/><path class="cls-11" d="M75.07,193.26a1.14,1.14,0,1,0-.33.8A1.14,1.14,0,0,0,75.07,193.26Z" transform="translate(0 0.2)"/><path class="cls-12" d="M75.07,187.59a1.14,1.14,0,1,0-.33.8,1.14,1.14,0,0,0,.33-.8" transform="translate(0 0.2)"/><path class="cls-11" d="M75.07,187.59a1.14,1.14,0,1,0-.33.8A1.14,1.14,0,0,0,75.07,187.59Z" transform="translate(0 0.2)"/><path class="cls-12" d="M75.07,181.93a1.13,1.13,0,1,0-.33.8,1.13,1.13,0,0,0,.33-.8" transform="translate(0 0.2)"/><path class="cls-11" d="M75.07,181.93a1.13,1.13,0,1,0-.33.8A1.13,1.13,0,0,0,75.07,181.93Z" transform="translate(0 0.2)"/><path class="cls-12" d="M75.07,176.26a1.13,1.13,0,1,0-.33.8,1.13,1.13,0,0,0,.33-.8" transform="translate(0 0.2)"/><path class="cls-11" d="M75.07,176.26a1.13,1.13,0,1,0-.33.8A1.13,1.13,0,0,0,75.07,176.26Z" transform="translate(0 0.2)"/><path class="cls-12" d="M75.07,170.59a1.13,1.13,0,1,0-.33.8,1.13,1.13,0,0,0,.33-.8" transform="translate(0 0.2)"/><path class="cls-11" d="M75.07,170.59a1.13,1.13,0,1,0-.33.8A1.13,1.13,0,0,0,75.07,170.59Z" transform="translate(0 0.2)"/><path class="cls-12" d="M75.07,164.92a1.14,1.14,0,1,0-.33.8,1.14,1.14,0,0,0,.33-.8" transform="translate(0 0.2)"/><path class="cls-11" d="M75.07,164.92a1.14,1.14,0,1,0-.33.8A1.14,1.14,0,0,0,75.07,164.92Z" transform="translate(0 0.2)"/><path class="cls-12" d="M75.07,159.25a1.14,1.14,0,1,0-.33.8,1.14,1.14,0,0,0,.33-.8" transform="translate(0 0.2)"/><path class="cls-11" d="M75.07,159.25a1.14,1.14,0,1,0-.33.8A1.14,1.14,0,0,0,75.07,159.25Z" transform="translate(0 0.2)"/><path class="cls-12" d="M75.07,153.58a1.13,1.13,0,1,0-.33.8,1.13,1.13,0,0,0,.33-.8" transform="translate(0 0.2)"/><path class="cls-11" d="M75.07,153.58a1.13,1.13,0,1,0-.33.8A1.13,1.13,0,0,0,75.07,153.58Z" transform="translate(0 0.2)"/><path class="cls-12" d="M75.07,147.91a1.13,1.13,0,1,0-.33.8,1.13,1.13,0,0,0,.33-.8" transform="translate(0 0.2)"/><path class="cls-11" d="M75.07,147.91a1.13,1.13,0,1,0-.33.8A1.13,1.13,0,0,0,75.07,147.91Z" transform="translate(0 0.2)"/><path class="cls-12" d="M75.07,142.24a1.13,1.13,0,1,0-.33.8,1.13,1.13,0,0,0,.33-.8" transform="translate(0 0.2)"/><path class="cls-11" d="M75.07,142.24a1.13,1.13,0,1,0-.33.8A1.13,1.13,0,0,0,75.07,142.24Z" transform="translate(0 0.2)"/><path class="cls-12" d="M75.07,136.57a1.14,1.14,0,1,0-.33.8,1.14,1.14,0,0,0,.33-.8" transform="translate(0 0.2)"/><path class="cls-11" d="M75.07,136.57a1.14,1.14,0,1,0-.33.8A1.14,1.14,0,0,0,75.07,136.57Z" transform="translate(0 0.2)"/><path class="cls-12" d="M75.07,130.9a1.14,1.14,0,1,0-.33.8,1.14,1.14,0,0,0,.33-.8" transform="translate(0 0.2)"/><path class="cls-11" d="M75.07,130.9a1.14,1.14,0,1,0-.33.8A1.14,1.14,0,0,0,75.07,130.9Z" transform="translate(0 0.2)"/><path class="cls-12" d="M75.07,125.23a1.14,1.14,0,1,0-.33.8,1.14,1.14,0,0,0,.33-.8" transform="translate(0 0.2)"/><path class="cls-11" d="M75.07,125.23a1.14,1.14,0,1,0-.33.8A1.14,1.14,0,0,0,75.07,125.23Z" transform="translate(0 0.2)"/><path class="cls-12" d="M75.07,119.56a1.13,1.13,0,1,0-.33.8,1.13,1.13,0,0,0,.33-.8" transform="translate(0 0.2)"/><path class="cls-11" d="M75.07,119.56a1.13,1.13,0,1,0-.33.8A1.13,1.13,0,0,0,75.07,119.56Z" transform="translate(0 0.2)"/><path class="cls-12" d="M75.07,113.9a1.13,1.13,0,1,0-.33.8,1.13,1.13,0,0,0,.33-.8" transform="translate(0 0.2)"/><path class="cls-11" d="M75.07,113.9a1.13,1.13,0,1,0-.33.8A1.13,1.13,0,0,0,75.07,113.9Z" transform="translate(0 0.2)"/><path class="cls-12" d="M75.07,108.23a1.13,1.13,0,1,0-.33.8,1.13,1.13,0,0,0,.33-.8" transform="translate(0 0.2)"/><path class="cls-11" d="M75.07,108.23a1.13,1.13,0,1,0-.33.8A1.13,1.13,0,0,0,75.07,108.23Z" transform="translate(0 0.2)"/><path class="cls-12" d="M75.07,102.56a1.14,1.14,0,1,0-.33.8,1.14,1.14,0,0,0,.33-.8" transform="translate(0 0.2)"/><path class="cls-11" d="M75.07,102.56a1.14,1.14,0,1,0-.33.8A1.14,1.14,0,0,0,75.07,102.56Z" transform="translate(0 0.2)"/><path class="cls-12" d="M75.07,96.89a1.14,1.14,0,1,0-.33.8,1.14,1.14,0,0,0,.33-.8" transform="translate(0 0.2)"/><path class="cls-11" d="M75.07,96.89a1.14,1.14,0,1,0-.33.8A1.14,1.14,0,0,0,75.07,96.89Z" transform="translate(0 0.2)"/><path class="cls-12" d="M75.07,91.22a1.13,1.13,0,1,0-.33.8,1.13,1.13,0,0,0,.33-.8" transform="translate(0 0.2)"/><path class="cls-11" d="M75.07,91.22a1.13,1.13,0,1,0-.33.8A1.13,1.13,0,0,0,75.07,91.22Z" transform="translate(0 0.2)"/><path class="cls-12" d="M126.1,221.61a1.13,1.13,0,1,0-.33.8,1.13,1.13,0,0,0,.33-.8" transform="translate(0 0.2)"/><path class="cls-11" d="M126.1,221.61a1.13,1.13,0,1,0-.33.8A1.13,1.13,0,0,0,126.1,221.61Z" transform="translate(0 0.2)"/><path class="cls-12" d="M126.1,215.94a1.14,1.14,0,1,0-1.14,1.14,1.14,1.14,0,0,0,1.14-1.14" transform="translate(0 0.2)"/><path class="cls-11" d="M126.1,215.94a1.14,1.14,0,1,0-1.14,1.14A1.14,1.14,0,0,0,126.1,215.94Z" transform="translate(0 0.2)"/><path class="cls-12" d="M126.1,210.27a1.13,1.13,0,1,0-.33.8,1.13,1.13,0,0,0,.33-.8" transform="translate(0 0.2)"/><path class="cls-11" d="M126.1,210.27a1.13,1.13,0,1,0-.33.8A1.13,1.13,0,0,0,126.1,210.27Z" transform="translate(0 0.2)"/><path class="cls-12" d="M126.1,204.6a1.13,1.13,0,1,0-.33.8,1.13,1.13,0,0,0,.33-.8" transform="translate(0 0.2)"/><path class="cls-11" d="M126.1,204.6a1.13,1.13,0,1,0-.33.8A1.13,1.13,0,0,0,126.1,204.6Z" transform="translate(0 0.2)"/><path class="cls-12" d="M126.1,198.93a1.13,1.13,0,1,0-.33.8,1.13,1.13,0,0,0,.33-.8" transform="translate(0 0.2)"/><path class="cls-11" d="M126.1,198.93a1.13,1.13,0,1,0-.33.8A1.13,1.13,0,0,0,126.1,198.93Z" transform="translate(0 0.2)"/><path class="cls-12" d="M126.1,193.26a1.14,1.14,0,1,0-1.14,1.13,1.13,1.13,0,0,0,1.14-1.13" transform="translate(0 0.2)"/><path class="cls-11" d="M126.1,193.26a1.14,1.14,0,1,0-1.14,1.13A1.13,1.13,0,0,0,126.1,193.26Z" transform="translate(0 0.2)"/><path class="cls-12" d="M126.1,187.59a1.14,1.14,0,1,0-1.14,1.14,1.13,1.13,0,0,0,1.14-1.14h0" transform="translate(0 0.2)"/><path class="cls-11" d="M126.1,187.59a1.14,1.14,0,1,0-1.14,1.14,1.13,1.13,0,0,0,1.14-1.14Z" transform="translate(0 0.2)"/><path class="cls-12" d="M126.1,181.93a1.13,1.13,0,1,0-.33.8,1.13,1.13,0,0,0,.33-.8" transform="translate(0 0.2)"/><path class="cls-11" d="M126.1,181.93a1.13,1.13,0,1,0-.33.8A1.13,1.13,0,0,0,126.1,181.93Z" transform="translate(0 0.2)"/><path class="cls-12" d="M126.1,176.26a1.13,1.13,0,1,0-.33.8,1.13,1.13,0,0,0,.33-.8" transform="translate(0 0.2)"/><path class="cls-11" d="M126.1,176.26a1.13,1.13,0,1,0-.33.8A1.13,1.13,0,0,0,126.1,176.26Z" transform="translate(0 0.2)"/><path class="cls-12" d="M126.1,170.59a1.13,1.13,0,1,0-.33.8,1.13,1.13,0,0,0,.33-.8" transform="translate(0 0.2)"/><path class="cls-11" d="M126.1,170.59a1.13,1.13,0,1,0-.33.8A1.13,1.13,0,0,0,126.1,170.59Z" transform="translate(0 0.2)"/><path class="cls-12" d="M126.1,164.92a1.14,1.14,0,1,0-1.14,1.13,1.13,1.13,0,0,0,1.14-1.13" transform="translate(0 0.2)"/><path class="cls-11" d="M126.1,164.92a1.14,1.14,0,1,0-1.14,1.13A1.13,1.13,0,0,0,126.1,164.92Z" transform="translate(0 0.2)"/><path class="cls-12" d="M126.1,159.25a1.14,1.14,0,1,0-1.14,1.14,1.14,1.14,0,0,0,1.14-1.14" transform="translate(0 0.2)"/><path class="cls-11" d="M126.1,159.25a1.14,1.14,0,1,0-1.14,1.14A1.14,1.14,0,0,0,126.1,159.25Z" transform="translate(0 0.2)"/><path class="cls-12" d="M126.1,153.58a1.13,1.13,0,1,0-.33.8,1.13,1.13,0,0,0,.33-.8" transform="translate(0 0.2)"/><path class="cls-11" d="M126.1,153.58a1.13,1.13,0,1,0-.33.8A1.13,1.13,0,0,0,126.1,153.58Z" transform="translate(0 0.2)"/><path class="cls-12" d="M126.1,147.91a1.13,1.13,0,1,0-.33.8,1.13,1.13,0,0,0,.33-.8" transform="translate(0 0.2)"/><path class="cls-11" d="M126.1,147.91a1.13,1.13,0,1,0-.33.8A1.13,1.13,0,0,0,126.1,147.91Z" transform="translate(0 0.2)"/><path class="cls-12" d="M126.1,142.24a1.13,1.13,0,1,0-.33.8,1.13,1.13,0,0,0,.33-.8" transform="translate(0 0.2)"/><path class="cls-11" d="M126.1,142.24a1.13,1.13,0,1,0-.33.8A1.13,1.13,0,0,0,126.1,142.24Z" transform="translate(0 0.2)"/><path class="cls-12" d="M126.1,136.57a1.14,1.14,0,1,0-1.14,1.14,1.14,1.14,0,0,0,1.14-1.14" transform="translate(0 0.2)"/><path class="cls-11" d="M126.1,136.57a1.14,1.14,0,1,0-1.14,1.14A1.14,1.14,0,0,0,126.1,136.57Z" transform="translate(0 0.2)"/><path class="cls-12" d="M126.1,130.9a1.14,1.14,0,1,0-.33.8,1.14,1.14,0,0,0,.33-.8" transform="translate(0 0.2)"/><path class="cls-11" d="M126.1,130.9a1.14,1.14,0,1,0-.33.8A1.14,1.14,0,0,0,126.1,130.9Z" transform="translate(0 0.2)"/><path class="cls-12" d="M126.1,125.23a1.14,1.14,0,1,0-.33.8,1.14,1.14,0,0,0,.33-.8" transform="translate(0 0.2)"/><path class="cls-11" d="M126.1,125.23a1.14,1.14,0,1,0-.33.8A1.14,1.14,0,0,0,126.1,125.23Z" transform="translate(0 0.2)"/><path class="cls-12" d="M126.1,119.56a1.13,1.13,0,1,0-.33.8,1.13,1.13,0,0,0,.33-.8" transform="translate(0 0.2)"/><path class="cls-11" d="M126.1,119.56a1.13,1.13,0,1,0-.33.8A1.13,1.13,0,0,0,126.1,119.56Z" transform="translate(0 0.2)"/><path class="cls-12" d="M126.1,113.9a1.13,1.13,0,1,0-.33.8,1.13,1.13,0,0,0,.33-.8" transform="translate(0 0.2)"/><path class="cls-11" d="M126.1,113.9a1.13,1.13,0,1,0-.33.8A1.13,1.13,0,0,0,126.1,113.9Z" transform="translate(0 0.2)"/><path class="cls-12" d="M126.1,108.23a1.13,1.13,0,1,0-.33.8,1.13,1.13,0,0,0,.33-.8" transform="translate(0 0.2)"/><path class="cls-11" d="M126.1,108.23a1.13,1.13,0,1,0-.33.8A1.13,1.13,0,0,0,126.1,108.23Z" transform="translate(0 0.2)"/><path class="cls-12" d="M126.1,102.56a1.14,1.14,0,1,0-.33.8,1.14,1.14,0,0,0,.33-.8" transform="translate(0 0.2)"/><path class="cls-11" d="M126.1,102.56a1.14,1.14,0,1,0-.33.8A1.14,1.14,0,0,0,126.1,102.56Z" transform="translate(0 0.2)"/><path class="cls-12" d="M126.1,96.89a1.14,1.14,0,1,0-.33.8,1.14,1.14,0,0,0,.33-.8" transform="translate(0 0.2)"/><path class="cls-11" d="M126.1,96.89a1.14,1.14,0,1,0-.33.8A1.14,1.14,0,0,0,126.1,96.89Z" transform="translate(0 0.2)"/><path class="cls-12" d="M126.1,91.22a1.13,1.13,0,1,0-.33.8,1.13,1.13,0,0,0,.33-.8" transform="translate(0 0.2)"/><path class="cls-11" d="M126.1,91.22a1.13,1.13,0,1,0-.33.8A1.13,1.13,0,0,0,126.1,91.22Z" transform="translate(0 0.2)"/><path class="cls-12" d="M131.73,221.61a1.13,1.13,0,1,0-.33.8,1.13,1.13,0,0,0,.33-.8" transform="translate(0 0.2)"/><path class="cls-11" d="M131.73,221.61a1.13,1.13,0,1,0-.33.8A1.13,1.13,0,0,0,131.73,221.61Z" transform="translate(0 0.2)"/><path class="cls-12" d="M131.73,215.94a1.14,1.14,0,1,0-.33.8,1.14,1.14,0,0,0,.33-.8" transform="translate(0 0.2)"/><path class="cls-11" d="M131.73,215.94a1.14,1.14,0,1,0-.33.8A1.14,1.14,0,0,0,131.73,215.94Z" transform="translate(0 0.2)"/><path class="cls-12" d="M131.73,210.27a1.13,1.13,0,1,0-.33.8,1.13,1.13,0,0,0,.33-.8" transform="translate(0 0.2)"/><path class="cls-11" d="M131.73,210.27a1.13,1.13,0,1,0-.33.8A1.13,1.13,0,0,0,131.73,210.27Z" transform="translate(0 0.2)"/><path class="cls-12" d="M131.73,204.6a1.13,1.13,0,1,0-.33.8,1.13,1.13,0,0,0,.33-.8" transform="translate(0 0.2)"/><path class="cls-11" d="M131.73,204.6a1.13,1.13,0,1,0-.33.8A1.13,1.13,0,0,0,131.73,204.6Z" transform="translate(0 0.2)"/><path class="cls-12" d="M131.73,198.93a1.13,1.13,0,1,0-.33.8,1.13,1.13,0,0,0,.33-.8" transform="translate(0 0.2)"/><path class="cls-11" d="M131.73,198.93a1.13,1.13,0,1,0-.33.8A1.13,1.13,0,0,0,131.73,198.93Z" transform="translate(0 0.2)"/><path class="cls-12" d="M131.73,193.26a1.14,1.14,0,1,0-.33.8,1.14,1.14,0,0,0,.33-.8" transform="translate(0 0.2)"/><path class="cls-11" d="M131.73,193.26a1.14,1.14,0,1,0-.33.8A1.14,1.14,0,0,0,131.73,193.26Z" transform="translate(0 0.2)"/><path class="cls-12" d="M131.73,187.59a1.14,1.14,0,1,0-.33.8,1.14,1.14,0,0,0,.33-.8" transform="translate(0 0.2)"/><path class="cls-11" d="M131.73,187.59a1.14,1.14,0,1,0-.33.8A1.14,1.14,0,0,0,131.73,187.59Z" transform="translate(0 0.2)"/><path class="cls-12" d="M131.73,181.93a1.13,1.13,0,1,0-.33.8,1.13,1.13,0,0,0,.33-.8" transform="translate(0 0.2)"/><path class="cls-11" d="M131.73,181.93a1.13,1.13,0,1,0-.33.8A1.13,1.13,0,0,0,131.73,181.93Z" transform="translate(0 0.2)"/><path class="cls-12" d="M131.73,176.26a1.13,1.13,0,1,0-.33.8,1.13,1.13,0,0,0,.33-.8" transform="translate(0 0.2)"/><path class="cls-11" d="M131.73,176.26a1.13,1.13,0,1,0-.33.8A1.13,1.13,0,0,0,131.73,176.26Z" transform="translate(0 0.2)"/><path class="cls-12" d="M131.73,170.59a1.13,1.13,0,1,0-.33.8,1.13,1.13,0,0,0,.33-.8" transform="translate(0 0.2)"/><path class="cls-11" d="M131.73,170.59a1.13,1.13,0,1,0-.33.8A1.13,1.13,0,0,0,131.73,170.59Z" transform="translate(0 0.2)"/><path class="cls-12" d="M131.73,164.92a1.14,1.14,0,1,0-.33.8,1.14,1.14,0,0,0,.33-.8" transform="translate(0 0.2)"/><path class="cls-11" d="M131.73,164.92a1.14,1.14,0,1,0-.33.8A1.14,1.14,0,0,0,131.73,164.92Z" transform="translate(0 0.2)"/><path class="cls-12" d="M131.73,159.25a1.14,1.14,0,1,0-.33.8,1.14,1.14,0,0,0,.33-.8" transform="translate(0 0.2)"/><path class="cls-11" d="M131.73,159.25a1.14,1.14,0,1,0-.33.8A1.14,1.14,0,0,0,131.73,159.25Z" transform="translate(0 0.2)"/><path class="cls-12" d="M131.73,153.58a1.13,1.13,0,1,0-.33.8,1.13,1.13,0,0,0,.33-.8" transform="translate(0 0.2)"/><path class="cls-11" d="M131.73,153.58a1.13,1.13,0,1,0-.33.8A1.13,1.13,0,0,0,131.73,153.58Z" transform="translate(0 0.2)"/><path class="cls-12" d="M131.73,147.91a1.13,1.13,0,1,0-.33.8,1.13,1.13,0,0,0,.33-.8" transform="translate(0 0.2)"/><path class="cls-11" d="M131.73,147.91a1.13,1.13,0,1,0-.33.8A1.13,1.13,0,0,0,131.73,147.91Z" transform="translate(0 0.2)"/><path class="cls-12" d="M131.73,142.24a1.14,1.14,0,1,0-1.14,1.13,1.13,1.13,0,0,0,1.14-1.13" transform="translate(0 0.2)"/><path class="cls-11" d="M131.73,142.24a1.14,1.14,0,1,0-1.14,1.13A1.13,1.13,0,0,0,131.73,142.24Z" transform="translate(0 0.2)"/><path class="cls-12" d="M137.44,221.61a1.13,1.13,0,1,0-.33.8,1.13,1.13,0,0,0,.33-.8" transform="translate(0 0.2)"/><path class="cls-11" d="M137.44,221.61a1.13,1.13,0,1,0-.33.8A1.13,1.13,0,0,0,137.44,221.61Z" transform="translate(0 0.2)"/><path class="cls-12" d="M137.44,215.94a1.14,1.14,0,1,0-.33.8,1.14,1.14,0,0,0,.33-.8" transform="translate(0 0.2)"/><path class="cls-11" d="M137.44,215.94a1.14,1.14,0,1,0-.33.8A1.14,1.14,0,0,0,137.44,215.94Z" transform="translate(0 0.2)"/><path class="cls-12" d="M137.44,210.27a1.13,1.13,0,1,0-.33.8,1.13,1.13,0,0,0,.33-.8" transform="translate(0 0.2)"/><path class="cls-11" d="M137.44,210.27a1.13,1.13,0,1,0-.33.8A1.13,1.13,0,0,0,137.44,210.27Z" transform="translate(0 0.2)"/><path class="cls-12" d="M137.44,204.6a1.13,1.13,0,1,0-.33.8,1.13,1.13,0,0,0,.33-.8" transform="translate(0 0.2)"/><path class="cls-11" d="M137.44,204.6a1.13,1.13,0,1,0-.33.8A1.13,1.13,0,0,0,137.44,204.6Z" transform="translate(0 0.2)"/><path class="cls-12" d="M137.44,198.93a1.13,1.13,0,1,0-.33.8,1.13,1.13,0,0,0,.33-.8" transform="translate(0 0.2)"/><path class="cls-11" d="M137.44,198.93a1.13,1.13,0,1,0-.33.8A1.13,1.13,0,0,0,137.44,198.93Z" transform="translate(0 0.2)"/><path class="cls-12" d="M137.44,193.26a1.14,1.14,0,1,0-.33.8,1.14,1.14,0,0,0,.33-.8" transform="translate(0 0.2)"/><path class="cls-11" d="M137.44,193.26a1.14,1.14,0,1,0-.33.8A1.14,1.14,0,0,0,137.44,193.26Z" transform="translate(0 0.2)"/><path class="cls-12" d="M182.79,221.61a1.13,1.13,0,1,0-.33.8,1.13,1.13,0,0,0,.33-.8" transform="translate(0 0.2)"/><path class="cls-11" d="M182.79,221.61a1.13,1.13,0,1,0-.33.8A1.13,1.13,0,0,0,182.79,221.61Z" transform="translate(0 0.2)"/><path class="cls-12" d="M182.79,215.94a1.13,1.13,0,1,0-.33.8,1.13,1.13,0,0,0,.33-.8" transform="translate(0 0.2)"/><path class="cls-11" d="M182.79,215.94a1.13,1.13,0,1,0-.33.8A1.13,1.13,0,0,0,182.79,215.94Z" transform="translate(0 0.2)"/><path class="cls-12" d="M182.79,210.27a1.13,1.13,0,1,0-.33.8,1.13,1.13,0,0,0,.33-.8" transform="translate(0 0.2)"/><path class="cls-11" d="M182.79,210.27a1.13,1.13,0,1,0-.33.8A1.13,1.13,0,0,0,182.79,210.27Z" transform="translate(0 0.2)"/><path class="cls-12" d="M182.79,204.6a1.13,1.13,0,1,0-.33.8,1.13,1.13,0,0,0,.33-.8" transform="translate(0 0.2)"/><path class="cls-11" d="M182.79,204.6a1.13,1.13,0,1,0-.33.8A1.13,1.13,0,0,0,182.79,204.6Z" transform="translate(0 0.2)"/><path class="cls-12" d="M182.79,198.93a1.13,1.13,0,1,0-.33.8,1.13,1.13,0,0,0,.33-.8" transform="translate(0 0.2)"/><path class="cls-11" d="M182.79,198.93a1.13,1.13,0,1,0-.33.8A1.13,1.13,0,0,0,182.79,198.93Z" transform="translate(0 0.2)"/><path class="cls-12" d="M182.79,193.26a1.13,1.13,0,1,0-.33.8,1.13,1.13,0,0,0,.33-.8" transform="translate(0 0.2)"/><path class="cls-11" d="M182.79,193.26a1.13,1.13,0,1,0-.33.8A1.13,1.13,0,0,0,182.79,193.26Z" transform="translate(0 0.2)"/><path class="cls-12" d="M182.79,187.59a1.13,1.13,0,1,0-.33.8,1.13,1.13,0,0,0,.33-.8" transform="translate(0 0.2)"/><path class="cls-11" d="M182.79,187.59a1.13,1.13,0,1,0-.33.8A1.13,1.13,0,0,0,182.79,187.59Z" transform="translate(0 0.2)"/><path class="cls-12" d="M182.79,181.93a1.13,1.13,0,1,0-.33.8,1.13,1.13,0,0,0,.33-.8" transform="translate(0 0.2)"/><path class="cls-11" d="M182.79,181.93a1.13,1.13,0,1,0-.33.8A1.13,1.13,0,0,0,182.79,181.93Z" transform="translate(0 0.2)"/><path class="cls-12" d="M182.79,176.26a1.13,1.13,0,1,0-.33.8,1.13,1.13,0,0,0,.33-.8" transform="translate(0 0.2)"/><path class="cls-11" d="M182.79,176.26a1.13,1.13,0,1,0-.33.8A1.13,1.13,0,0,0,182.79,176.26Z" transform="translate(0 0.2)"/><path class="cls-12" d="M182.79,170.59a1.13,1.13,0,1,0-1.13,1.13,1.13,1.13,0,0,0,1.13-1.13h0" transform="translate(0 0.2)"/><path class="cls-11" d="M182.79,170.59a1.13,1.13,0,1,0-1.13,1.13,1.13,1.13,0,0,0,1.13-1.13Z" transform="translate(0 0.2)"/><path class="cls-12" d="M182.79,164.92a1.13,1.13,0,1,0-.33.8,1.13,1.13,0,0,0,.33-.8" transform="translate(0 0.2)"/><path class="cls-11" d="M182.79,164.92a1.13,1.13,0,1,0-.33.8A1.13,1.13,0,0,0,182.79,164.92Z" transform="translate(0 0.2)"/><path class="cls-12" d="M182.79,159.25a1.13,1.13,0,1,0-.33.8,1.13,1.13,0,0,0,.33-.8" transform="translate(0 0.2)"/><path class="cls-11" d="M182.79,159.25a1.13,1.13,0,1,0-.33.8A1.13,1.13,0,0,0,182.79,159.25Z" transform="translate(0 0.2)"/><path class="cls-12" d="M182.79,153.58a1.13,1.13,0,1,0-.33.8,1.13,1.13,0,0,0,.33-.8" transform="translate(0 0.2)"/><path class="cls-11" d="M182.79,153.58a1.13,1.13,0,1,0-.33.8,1.13,1.13,0,0,0,.33-.8Z" transform="translate(0 0.2)"/><path class="cls-12" d="M182.79,147.91a1.13,1.13,0,1,0-1.13,1.13,1.13,1.13,0,0,0,1.13-1.13h0" transform="translate(0 0.2)"/><path class="cls-11" d="M182.79,147.91a1.13,1.13,0,1,0-1.13,1.13,1.13,1.13,0,0,0,1.13-1.13Z" transform="translate(0 0.2)"/><path class="cls-12" d="M182.79,142.24a1.13,1.13,0,1,0-.33.8,1.13,1.13,0,0,0,.33-.8" transform="translate(0 0.2)"/><path class="cls-11" d="M182.79,142.24a1.13,1.13,0,1,0-.33.8A1.13,1.13,0,0,0,182.79,142.24Z" transform="translate(0 0.2)"/><path class="cls-12" d="M182.79,136.57a1.13,1.13,0,1,0-.33.8,1.13,1.13,0,0,0,.33-.8" transform="translate(0 0.2)"/><path class="cls-11" d="M182.79,136.57a1.13,1.13,0,1,0-.33.8A1.13,1.13,0,0,0,182.79,136.57Z" transform="translate(0 0.2)"/><path class="cls-12" d="M182.79,130.9a1.13,1.13,0,1,0-.33.8,1.13,1.13,0,0,0,.33-.8" transform="translate(0 0.2)"/><path class="cls-11" d="M182.79,130.9a1.13,1.13,0,1,0-.33.8A1.13,1.13,0,0,0,182.79,130.9Z" transform="translate(0 0.2)"/><path class="cls-12" d="M182.79,125.23a1.13,1.13,0,1,0-.33.8,1.13,1.13,0,0,0,.33-.8" transform="translate(0 0.2)"/><path class="cls-11" d="M182.79,125.23a1.13,1.13,0,1,0-.33.8A1.13,1.13,0,0,0,182.79,125.23Z" transform="translate(0 0.2)"/><path class="cls-12" d="M182.79,119.56a1.13,1.13,0,1,0-.33.8,1.13,1.13,0,0,0,.33-.8" transform="translate(0 0.2)"/><path class="cls-11" d="M182.79,119.56a1.13,1.13,0,1,0-.33.8A1.13,1.13,0,0,0,182.79,119.56Z" transform="translate(0 0.2)"/><path class="cls-12" d="M182.79,113.9a1.13,1.13,0,1,0-.33.8,1.13,1.13,0,0,0,.33-.8" transform="translate(0 0.2)"/><path class="cls-11" d="M182.79,113.9a1.13,1.13,0,1,0-.33.8A1.13,1.13,0,0,0,182.79,113.9Z" transform="translate(0 0.2)"/><path class="cls-12" d="M182.79,108.23a1.13,1.13,0,1,0-.33.8,1.13,1.13,0,0,0,.33-.8" transform="translate(0 0.2)"/><path class="cls-11" d="M182.79,108.23a1.13,1.13,0,1,0-.33.8A1.13,1.13,0,0,0,182.79,108.23Z" transform="translate(0 0.2)"/><path class="cls-12" d="M182.79,102.56a1.13,1.13,0,1,0-.33.8,1.13,1.13,0,0,0,.33-.8" transform="translate(0 0.2)"/><path class="cls-11" d="M182.79,102.56a1.13,1.13,0,1,0-.33.8A1.13,1.13,0,0,0,182.79,102.56Z" transform="translate(0 0.2)"/><path class="cls-12" d="M182.79,96.89a1.13,1.13,0,1,0-.33.8,1.13,1.13,0,0,0,.33-.8" transform="translate(0 0.2)"/><path class="cls-11" d="M182.79,96.89a1.13,1.13,0,1,0-.33.8A1.13,1.13,0,0,0,182.79,96.89Z" transform="translate(0 0.2)"/><path class="cls-12" d="M182.79,91.22a1.13,1.13,0,1,0-1.13,1.13,1.13,1.13,0,0,0,1.13-1.13h0" transform="translate(0 0.2)"/><path class="cls-11" d="M182.79,91.22a1.13,1.13,0,1,0-1.13,1.13,1.13,1.13,0,0,0,1.13-1.13Z" transform="translate(0 0.2)"/><path class="cls-12" d="M182.79,85.5a1.13,1.13,0,1,0-.33.8,1.13,1.13,0,0,0,.33-.8" transform="translate(0 0.2)"/><path class="cls-11" d="M182.79,85.5a1.13,1.13,0,1,0-.33.8A1.13,1.13,0,0,0,182.79,85.5Z" transform="translate(0 0.2)"/><path class="cls-12" d="M182.79,79.88a1.13,1.13,0,1,0-.33.8,1.13,1.13,0,0,0,.33-.8" transform="translate(0 0.2)"/><path class="cls-11" d="M182.79,79.88a1.13,1.13,0,1,0-.33.8A1.13,1.13,0,0,0,182.79,79.88Z" transform="translate(0 0.2)"/><path class="cls-12" d="M182.79,74.21a1.13,1.13,0,1,0-.33.8,1.13,1.13,0,0,0,.33-.8" transform="translate(0 0.2)"/><path class="cls-11" d="M182.79,74.21a1.13,1.13,0,1,0-.33.8A1.13,1.13,0,0,0,182.79,74.21Z" transform="translate(0 0.2)"/><path class="cls-12" d="M182.79,68.5a1.13,1.13,0,1,0-.33.8,1.13,1.13,0,0,0,.33-.8" transform="translate(0 0.2)"/><path class="cls-11" d="M182.79,68.5a1.13,1.13,0,1,0-.33.8A1.13,1.13,0,0,0,182.79,68.5Z" transform="translate(0 0.2)"/><path class="cls-12" d="M182.79,62.87a1.13,1.13,0,1,0-.33.8,1.13,1.13,0,0,0,.33-.8" transform="translate(0 0.2)"/><path class="cls-11" d="M182.79,62.87a1.13,1.13,0,1,0-.33.8A1.13,1.13,0,0,0,182.79,62.87Z" transform="translate(0 0.2)"/><path class="cls-12" d="M182.79,57.2a1.13,1.13,0,1,0-.33.8,1.13,1.13,0,0,0,.33-.8" transform="translate(0 0.2)"/><path class="cls-11" d="M182.79,57.2a1.13,1.13,0,1,0-.33.8A1.13,1.13,0,0,0,182.79,57.2Z" transform="translate(0 0.2)"/><path class="cls-12" d="M182.79,51.5a1.13,1.13,0,1,0-.33.8,1.13,1.13,0,0,0,.33-.8" transform="translate(0 0.2)"/><path class="cls-11" d="M182.79,51.5a1.13,1.13,0,1,0-.33.8A1.13,1.13,0,0,0,182.79,51.5Z" transform="translate(0 0.2)"/><path class="cls-12" d="M182.79,45.86a1.13,1.13,0,1,0-.33.8,1.13,1.13,0,0,0,.33-.8" transform="translate(0 0.2)"/><path class="cls-11" d="M182.79,45.86a1.13,1.13,0,1,0-.33.8A1.13,1.13,0,0,0,182.79,45.86Z" transform="translate(0 0.2)"/><path class="cls-12" d="M182.79,40.19a1.13,1.13,0,1,0-.33.8,1.13,1.13,0,0,0,.33-.8" transform="translate(0 0.2)"/><path class="cls-11" d="M182.79,40.19a1.13,1.13,0,1,0-.33.8A1.13,1.13,0,0,0,182.79,40.19Z" transform="translate(0 0.2)"/><path class="cls-12" d="M188.46,221.61a1.13,1.13,0,1,0-.33.8,1.13,1.13,0,0,0,.33-.8" transform="translate(0 0.2)"/><path class="cls-11" d="M188.46,221.61a1.13,1.13,0,1,0-.33.8A1.13,1.13,0,0,0,188.46,221.61Z" transform="translate(0 0.2)"/><path class="cls-12" d="M188.46,215.94a1.14,1.14,0,1,0-.33.8,1.14,1.14,0,0,0,.33-.8" transform="translate(0 0.2)"/><path class="cls-11" d="M188.46,215.94a1.14,1.14,0,1,0-.33.8A1.14,1.14,0,0,0,188.46,215.94Z" transform="translate(0 0.2)"/><path class="cls-12" d="M188.46,210.27a1.13,1.13,0,1,0-.33.8,1.13,1.13,0,0,0,.33-.8" transform="translate(0 0.2)"/><path class="cls-11" d="M188.46,210.27a1.13,1.13,0,1,0-.33.8A1.13,1.13,0,0,0,188.46,210.27Z" transform="translate(0 0.2)"/><path class="cls-12" d="M188.46,204.6a1.14,1.14,0,1,0-1.14,1.13h0a1.13,1.13,0,0,0,1.14-1.12h0" transform="translate(0 0.2)"/><path class="cls-11" d="M188.46,204.6a1.14,1.14,0,1,0-1.14,1.13h0a1.13,1.13,0,0,0,1.14-1.12Z" transform="translate(0 0.2)"/><path class="cls-12" d="M188.46,198.93a1.13,1.13,0,1,0-.33.8,1.13,1.13,0,0,0,.33-.8" transform="translate(0 0.2)"/><path class="cls-11" d="M188.46,198.93a1.13,1.13,0,1,0-.33.8A1.13,1.13,0,0,0,188.46,198.93Z" transform="translate(0 0.2)"/><path class="cls-12" d="M188.46,193.26a1.14,1.14,0,1,0-.33.8,1.14,1.14,0,0,0,.33-.8" transform="translate(0 0.2)"/><path class="cls-11" d="M188.46,193.26a1.14,1.14,0,1,0-.33.8A1.14,1.14,0,0,0,188.46,193.26Z" transform="translate(0 0.2)"/><path class="cls-12" d="M188.46,187.59a1.14,1.14,0,1,0-.33.8,1.14,1.14,0,0,0,.33-.8" transform="translate(0 0.2)"/><path class="cls-11" d="M188.46,187.59a1.14,1.14,0,1,0-.33.8A1.14,1.14,0,0,0,188.46,187.59Z" transform="translate(0 0.2)"/><path class="cls-12" d="M188.46,181.93a1.13,1.13,0,1,0-.33.8,1.13,1.13,0,0,0,.33-.8" transform="translate(0 0.2)"/><path class="cls-11" d="M188.46,181.93a1.13,1.13,0,1,0-.33.8A1.13,1.13,0,0,0,188.46,181.93Z" transform="translate(0 0.2)"/><path class="cls-12" d="M188.46,176.26a1.14,1.14,0,1,0-2.27,0h0a1.13,1.13,0,0,0,1.13,1.13h0a1.13,1.13,0,0,0,1.14-1.12h0" transform="translate(0 0.2)"/><path class="cls-11" d="M188.46,176.26a1.14,1.14,0,1,0-2.27,0h0a1.13,1.13,0,0,0,1.13,1.13h0a1.13,1.13,0,0,0,1.14-1.12Z" transform="translate(0 0.2)"/><path class="cls-12" d="M188.46,170.59a1.14,1.14,0,1,0-1.13,1.14,1.14,1.14,0,0,0,1.13-1.14" transform="translate(0 0.2)"/><path class="cls-11" d="M188.46,170.59a1.14,1.14,0,1,0-1.13,1.14A1.14,1.14,0,0,0,188.46,170.59Z" transform="translate(0 0.2)"/><path class="cls-12" d="M188.46,164.92a1.14,1.14,0,1,0-.33.8,1.14,1.14,0,0,0,.33-.8" transform="translate(0 0.2)"/><path class="cls-11" d="M188.46,164.92a1.14,1.14,0,1,0-.33.8A1.14,1.14,0,0,0,188.46,164.92Z" transform="translate(0 0.2)"/><path class="cls-12" d="M188.46,159.25a1.14,1.14,0,1,0-.33.8,1.14,1.14,0,0,0,.33-.8" transform="translate(0 0.2)"/><path class="cls-11" d="M188.46,159.25a1.14,1.14,0,1,0-.33.8A1.14,1.14,0,0,0,188.46,159.25Z" transform="translate(0 0.2)"/><g class="cls-3"><text class="cls-13" transform="translate(50.06 266.53)">Č</text><text class="cls-13" transform="translate(55.25 266.53)">ísla </text><text class="cls-14" transform="translate(69.29 266.53)">v</text><text class="cls-13" transform="translate(73.57 266.53)">stupenek v </text><text class="cls-15" transform="translate(116.57 266.53)">G</text><text class="cls-13" transform="translate(122.45 266.53)">auss</text><text class="cls-14" transform="translate(138.88 266.53)">o</text><text class="cls-14" transform="translate(143.76 266.53)">v</text><text class="cls-13" transform="translate(148 266.53)">ě </text><text class="cls-14" transform="translate(154.41 266.53)">r</text><text class="cls-14" transform="translate(157.27 266.53)">o</text><text class="cls-13" transform="translate(162.14 266.53)">vině</text></g><g class="cls-3"><text class="cls-15" transform="translate(264.9 257.03)">S</text><text class="cls-13" transform="translate(269.39 257.03)">chém</text><text class="cls-13" transform="translate(290.43 257.03)">a</text><text class="cls-13" transform="translate(294.73 257.03)">tické zná</text><text class="cls-14" transform="translate(327.67 257.03)">z</text><text class="cls-13" transform="translate(331.46 257.03)">o</text><text class="cls-13" transform="translate(336.4 257.03)">r</text><text class="cls-13" transform="translate(339.38 257.03)">nění podp</text><text class="cls-14" transform="translate(378.15 257.03)">r</text><text class="cls-13" transform="translate(381.01 257.03)">os</text><text class="cls-14" transform="translate(389.51 257.03)">t</text><text class="cls-13" transform="translate(392.44 257.03)">oru </text><text class="cls-13" transform="translate(407.19 257.03)">M</text><text class="cls-13" transform="translate(414.45 257.03)">ušle</text></g><g class="cls-3"><text class="cls-13" transform="translate(24.9 248.03)">su</text><text class="cls-14" transform="translate(33.42 248.03)">t</text><text class="cls-13" transform="translate(36.35 248.03)">e</text><text class="cls-14" transform="translate(40.86 248.03)">r</text><text class="cls-13" transform="translate(43.71 248.03)">én</text></g><g class="cls-3"><text class="cls-13" transform="translate(78.23 248.03)">p</text><text class="cls-13" transform="translate(83.35 248.03)">ř</text><text class="cls-13" transform="translate(86.33 248.03)">í</text><text class="cls-14" transform="translate(88.44 248.03)">z</text><text class="cls-13" transform="translate(92.22 248.03)">emí</text></g><g class="cls-3"><text class="cls-13" transform="translate(137.48 247.62)">1.p</text><text class="cls-13" transform="translate(149.08 247.62)">a</text><text class="cls-13" transform="translate(153.38 247.62)">t</text><text class="cls-14" transform="translate(156.36 247.62)">r</text><text class="cls-13" transform="translate(159.21 247.62)">o</text></g><g class="cls-3"><text class="cls-13" transform="translate(194.31 247.62)">2.p</text><text class="cls-13" transform="translate(205.91 247.62)">a</text><text class="cls-13" transform="translate(210.21 247.62)">t</text><text class="cls-14" transform="translate(213.19 247.62)">r</text><text class="cls-13" transform="translate(216.04 247.62)">o</text></g></svg>